<svg width="150" height="150" viewBox="0 0 150 150" fill="none" xmlns="http://www.w3.org/2000/svg">
<mask id="path-1-outside-1_249_1127" maskUnits="userSpaceOnUse" x="6.5" y="9.30078" width="137" height="131" fill="black">
<rect fill="white" x="6.5" y="9.30078" width="137" height="131"/>
<path d="M33.2335 17.6924H22.1065C18.124 17.6939 14.8975 20.9204 14.896 24.9029C14.8975 28.8854 18.124 32.1119 22.1065 32.1119H33.2335C37.216 32.1104 40.4425 28.8839 40.4425 24.9029C40.441 20.9189 37.216 17.6924 33.2335 17.6924ZM33.2335 28.8194H22.1065C19.9435 28.8149 18.193 27.0644 18.1885 24.9014C18.193 22.7384 19.9435 20.9879 22.1065 20.9834H33.2335C35.3965 20.9879 37.147 22.7384 37.1515 24.9014C37.147 27.0644 35.395 28.8149 33.2335 28.8194Z"/>
<path d="M58.795 33.2783C54.8125 33.2798 51.586 36.5063 51.5845 40.4888C51.586 44.4713 54.8125 47.6978 58.795 47.6978C62.7775 47.6963 66.004 44.4698 66.004 40.4888C66.004 36.5063 62.7775 33.2798 58.795 33.2783ZM58.795 44.4068C56.632 44.4023 54.8815 42.6518 54.877 40.4888C54.8815 38.3258 56.632 36.5753 58.795 36.5708C60.958 36.5753 62.7085 38.3258 62.7115 40.4888C62.7085 42.6518 60.958 44.4023 58.795 44.4068Z"/>
<path d="M142.165 92.6545C139.15 88.648 134.692 85.702 129.148 85.711C128.605 85.711 128.051 85.738 127.489 85.7965L127.445 85.801L127.396 85.8085C123.746 86.3785 120.469 88.3735 118.3 91.8655C116.12 95.35 114.964 100.196 114.959 106.652V134.867C114.961 137.536 117.121 139.696 119.789 139.697C122.458 139.696 124.618 137.536 124.619 134.867V111.37C126.202 111.962 127.861 112.282 129.521 112.282C134.498 112.282 139.495 109.72 142.271 104.999L142.499 104.614V93.0955L142.165 92.6545ZM129.523 108.989C127.529 108.988 125.567 108.46 123.862 107.368L121.328 105.749V134.867C121.327 135.715 120.64 136.403 119.791 136.405C118.942 136.403 118.255 135.716 118.253 134.867V106.652C118.25 100.583 119.369 96.346 121.09 93.616C122.813 90.907 125.048 89.5585 127.876 89.0695C128.308 89.026 128.732 89.0035 129.149 89.0035C133.309 89.0125 136.634 91.054 139.207 94.2415V103.664C137.027 107.099 133.261 108.989 129.523 108.989Z"/>
<path d="M104.724 88.4943V34.7178C104.722 29.8428 100.764 25.8888 95.8725 25.8873H76.098V20.1543C76.0965 14.7153 71.685 10.3038 66.2445 10.3008H17.3535C11.913 10.3023 7.5015 14.7153 7.5 20.1543V129.848C7.5015 135.287 11.913 139.698 17.3535 139.701H95.874C98.259 139.698 100.408 138.74 102 137.207C102.825 138.686 104.387 139.697 106.202 139.698C108.87 139.697 111.03 137.537 111.032 134.868V106.653C111.029 100.197 109.872 95.3508 107.691 91.8663C106.854 90.5193 105.849 89.4003 104.724 88.4943ZM12.7155 134.484C11.5245 133.292 10.7925 131.66 10.7925 129.848V20.1543C10.794 18.3408 11.5245 16.7103 12.7155 15.5163C13.9095 14.3253 15.54 13.5933 17.3535 13.5933H66.246C68.0595 13.5948 69.69 14.3253 70.8825 15.5163C72.0735 16.7103 72.8055 18.3408 72.8055 20.1543V25.8873H53.0325C48.141 25.8888 44.1825 29.8428 44.181 34.7178V130.871C44.1825 132.98 44.9535 134.889 46.1895 136.409H17.3535C15.54 136.406 13.9095 135.675 12.7155 134.484ZM95.8725 136.407H53.0325C49.956 136.401 47.4795 133.919 47.4735 130.869V34.7178C47.4795 31.6683 49.956 29.1858 53.0325 29.1798H95.8725C98.949 29.1858 101.426 31.6683 101.432 34.7178V86.5848C100.521 86.2263 99.573 85.9623 98.5935 85.8093L98.544 85.8018L98.499 85.7973C97.935 85.7388 97.3815 85.7118 96.84 85.7118C91.296 85.7028 86.8395 88.6488 83.8245 92.6553L83.49 93.0963V104.615L83.718 105C86.493 109.721 91.491 112.283 96.468 112.283C98.13 112.283 99.7875 111.963 101.372 111.371V131.586C101.042 134.282 98.6985 136.412 95.8725 136.407ZM107.737 134.867C107.736 135.716 107.049 136.403 106.2 136.404C105.351 136.403 104.664 135.716 104.663 134.867V105.749L102.129 107.369C100.422 108.459 98.46 108.989 96.4665 108.99C92.727 108.99 88.9605 107.1 86.7825 103.665V94.2423C89.355 91.0548 92.6805 89.0118 96.84 89.0043C97.2555 89.0043 97.68 89.0268 98.1135 89.0703C100.942 89.5593 103.177 90.9078 104.899 93.6168C106.62 96.3468 107.739 100.583 107.736 106.653L107.737 134.867Z"/>
</mask>
<path d="M33.2335 17.6924H22.1065C18.124 17.6939 14.8975 20.9204 14.896 24.9029C14.8975 28.8854 18.124 32.1119 22.1065 32.1119H33.2335C37.216 32.1104 40.4425 28.8839 40.4425 24.9029C40.441 20.9189 37.216 17.6924 33.2335 17.6924ZM33.2335 28.8194H22.1065C19.9435 28.8149 18.193 27.0644 18.1885 24.9014C18.193 22.7384 19.9435 20.9879 22.1065 20.9834H33.2335C35.3965 20.9879 37.147 22.7384 37.1515 24.9014C37.147 27.0644 35.395 28.8149 33.2335 28.8194Z" fill="black"/>
<path d="M58.795 33.2783C54.8125 33.2798 51.586 36.5063 51.5845 40.4888C51.586 44.4713 54.8125 47.6978 58.795 47.6978C62.7775 47.6963 66.004 44.4698 66.004 40.4888C66.004 36.5063 62.7775 33.2798 58.795 33.2783ZM58.795 44.4068C56.632 44.4023 54.8815 42.6518 54.877 40.4888C54.8815 38.3258 56.632 36.5753 58.795 36.5708C60.958 36.5753 62.7085 38.3258 62.7115 40.4888C62.7085 42.6518 60.958 44.4023 58.795 44.4068Z" fill="black"/>
<path d="M142.165 92.6545C139.15 88.648 134.692 85.702 129.148 85.711C128.605 85.711 128.051 85.738 127.489 85.7965L127.445 85.801L127.396 85.8085C123.746 86.3785 120.469 88.3735 118.3 91.8655C116.12 95.35 114.964 100.196 114.959 106.652V134.867C114.961 137.536 117.121 139.696 119.789 139.697C122.458 139.696 124.618 137.536 124.619 134.867V111.37C126.202 111.962 127.861 112.282 129.521 112.282C134.498 112.282 139.495 109.72 142.271 104.999L142.499 104.614V93.0955L142.165 92.6545ZM129.523 108.989C127.529 108.988 125.567 108.46 123.862 107.368L121.328 105.749V134.867C121.327 135.715 120.64 136.403 119.791 136.405C118.942 136.403 118.255 135.716 118.253 134.867V106.652C118.25 100.583 119.369 96.346 121.09 93.616C122.813 90.907 125.048 89.5585 127.876 89.0695C128.308 89.026 128.732 89.0035 129.149 89.0035C133.309 89.0125 136.634 91.054 139.207 94.2415V103.664C137.027 107.099 133.261 108.989 129.523 108.989Z" fill="black"/>
<path d="M104.724 88.4943V34.7178C104.722 29.8428 100.764 25.8888 95.8725 25.8873H76.098V20.1543C76.0965 14.7153 71.685 10.3038 66.2445 10.3008H17.3535C11.913 10.3023 7.5015 14.7153 7.5 20.1543V129.848C7.5015 135.287 11.913 139.698 17.3535 139.701H95.874C98.259 139.698 100.408 138.74 102 137.207C102.825 138.686 104.387 139.697 106.202 139.698C108.87 139.697 111.03 137.537 111.032 134.868V106.653C111.029 100.197 109.872 95.3508 107.691 91.8663C106.854 90.5193 105.849 89.4003 104.724 88.4943ZM12.7155 134.484C11.5245 133.292 10.7925 131.66 10.7925 129.848V20.1543C10.794 18.3408 11.5245 16.7103 12.7155 15.5163C13.9095 14.3253 15.54 13.5933 17.3535 13.5933H66.246C68.0595 13.5948 69.69 14.3253 70.8825 15.5163C72.0735 16.7103 72.8055 18.3408 72.8055 20.1543V25.8873H53.0325C48.141 25.8888 44.1825 29.8428 44.181 34.7178V130.871C44.1825 132.98 44.9535 134.889 46.1895 136.409H17.3535C15.54 136.406 13.9095 135.675 12.7155 134.484ZM95.8725 136.407H53.0325C49.956 136.401 47.4795 133.919 47.4735 130.869V34.7178C47.4795 31.6683 49.956 29.1858 53.0325 29.1798H95.8725C98.949 29.1858 101.426 31.6683 101.432 34.7178V86.5848C100.521 86.2263 99.573 85.9623 98.5935 85.8093L98.544 85.8018L98.499 85.7973C97.935 85.7388 97.3815 85.7118 96.84 85.7118C91.296 85.7028 86.8395 88.6488 83.8245 92.6553L83.49 93.0963V104.615L83.718 105C86.493 109.721 91.491 112.283 96.468 112.283C98.13 112.283 99.7875 111.963 101.372 111.371V131.586C101.042 134.282 98.6985 136.412 95.8725 136.407ZM107.737 134.867C107.736 135.716 107.049 136.403 106.2 136.404C105.351 136.403 104.664 135.716 104.663 134.867V105.749L102.129 107.369C100.422 108.459 98.46 108.989 96.4665 108.99C92.727 108.99 88.9605 107.1 86.7825 103.665V94.2423C89.355 91.0548 92.6805 89.0118 96.84 89.0043C97.2555 89.0043 97.68 89.0268 98.1135 89.0703C100.942 89.5593 103.177 90.9078 104.899 93.6168C106.62 96.3468 107.739 100.583 107.736 106.653L107.737 134.867Z" fill="black"/>
<path d="M33.2335 17.6924H22.1065C18.124 17.6939 14.8975 20.9204 14.896 24.9029C14.8975 28.8854 18.124 32.1119 22.1065 32.1119H33.2335C37.216 32.1104 40.4425 28.8839 40.4425 24.9029C40.441 20.9189 37.216 17.6924 33.2335 17.6924ZM33.2335 28.8194H22.1065C19.9435 28.8149 18.193 27.0644 18.1885 24.9014C18.193 22.7384 19.9435 20.9879 22.1065 20.9834H33.2335C35.3965 20.9879 37.147 22.7384 37.1515 24.9014C37.147 27.0644 35.395 28.8149 33.2335 28.8194Z" stroke="black" mask="url(#path-1-outside-1_249_1127)"/>
<path d="M58.795 33.2783C54.8125 33.2798 51.586 36.5063 51.5845 40.4888C51.586 44.4713 54.8125 47.6978 58.795 47.6978C62.7775 47.6963 66.004 44.4698 66.004 40.4888C66.004 36.5063 62.7775 33.2798 58.795 33.2783ZM58.795 44.4068C56.632 44.4023 54.8815 42.6518 54.877 40.4888C54.8815 38.3258 56.632 36.5753 58.795 36.5708C60.958 36.5753 62.7085 38.3258 62.7115 40.4888C62.7085 42.6518 60.958 44.4023 58.795 44.4068Z" stroke="black" mask="url(#path-1-outside-1_249_1127)"/>
<path d="M142.165 92.6545C139.15 88.648 134.692 85.702 129.148 85.711C128.605 85.711 128.051 85.738 127.489 85.7965L127.445 85.801L127.396 85.8085C123.746 86.3785 120.469 88.3735 118.3 91.8655C116.12 95.35 114.964 100.196 114.959 106.652V134.867C114.961 137.536 117.121 139.696 119.789 139.697C122.458 139.696 124.618 137.536 124.619 134.867V111.37C126.202 111.962 127.861 112.282 129.521 112.282C134.498 112.282 139.495 109.72 142.271 104.999L142.499 104.614V93.0955L142.165 92.6545ZM129.523 108.989C127.529 108.988 125.567 108.46 123.862 107.368L121.328 105.749V134.867C121.327 135.715 120.64 136.403 119.791 136.405C118.942 136.403 118.255 135.716 118.253 134.867V106.652C118.25 100.583 119.369 96.346 121.09 93.616C122.813 90.907 125.048 89.5585 127.876 89.0695C128.308 89.026 128.732 89.0035 129.149 89.0035C133.309 89.0125 136.634 91.054 139.207 94.2415V103.664C137.027 107.099 133.261 108.989 129.523 108.989Z" stroke="black" mask="url(#path-1-outside-1_249_1127)"/>
<path d="M104.724 88.4943V34.7178C104.722 29.8428 100.764 25.8888 95.8725 25.8873H76.098V20.1543C76.0965 14.7153 71.685 10.3038 66.2445 10.3008H17.3535C11.913 10.3023 7.5015 14.7153 7.5 20.1543V129.848C7.5015 135.287 11.913 139.698 17.3535 139.701H95.874C98.259 139.698 100.408 138.74 102 137.207C102.825 138.686 104.387 139.697 106.202 139.698C108.87 139.697 111.03 137.537 111.032 134.868V106.653C111.029 100.197 109.872 95.3508 107.691 91.8663C106.854 90.5193 105.849 89.4003 104.724 88.4943ZM12.7155 134.484C11.5245 133.292 10.7925 131.66 10.7925 129.848V20.1543C10.794 18.3408 11.5245 16.7103 12.7155 15.5163C13.9095 14.3253 15.54 13.5933 17.3535 13.5933H66.246C68.0595 13.5948 69.69 14.3253 70.8825 15.5163C72.0735 16.7103 72.8055 18.3408 72.8055 20.1543V25.8873H53.0325C48.141 25.8888 44.1825 29.8428 44.181 34.7178V130.871C44.1825 132.98 44.9535 134.889 46.1895 136.409H17.3535C15.54 136.406 13.9095 135.675 12.7155 134.484ZM95.8725 136.407H53.0325C49.956 136.401 47.4795 133.919 47.4735 130.869V34.7178C47.4795 31.6683 49.956 29.1858 53.0325 29.1798H95.8725C98.949 29.1858 101.426 31.6683 101.432 34.7178V86.5848C100.521 86.2263 99.573 85.9623 98.5935 85.8093L98.544 85.8018L98.499 85.7973C97.935 85.7388 97.3815 85.7118 96.84 85.7118C91.296 85.7028 86.8395 88.6488 83.8245 92.6553L83.49 93.0963V104.615L83.718 105C86.493 109.721 91.491 112.283 96.468 112.283C98.13 112.283 99.7875 111.963 101.372 111.371V131.586C101.042 134.282 98.6985 136.412 95.8725 136.407ZM107.737 134.867C107.736 135.716 107.049 136.403 106.2 136.404C105.351 136.403 104.664 135.716 104.663 134.867V105.749L102.129 107.369C100.422 108.459 98.46 108.989 96.4665 108.99C92.727 108.99 88.9605 107.1 86.7825 103.665V94.2423C89.355 91.0548 92.6805 89.0118 96.84 89.0043C97.2555 89.0043 97.68 89.0268 98.1135 89.0703C100.942 89.5593 103.177 90.9078 104.899 93.6168C106.62 96.3468 107.739 100.583 107.736 106.653L107.737 134.867Z" stroke="black" mask="url(#path-1-outside-1_249_1127)"/>
</svg>
