<svg width="150" height="150" viewBox="0 0 150 150" fill="none" xmlns="http://www.w3.org/2000/svg">
<path d="M91.1184 137.141L91.1194 137.142C91.3374 137.226 91.5668 137.269 91.7964 137.269C92.0407 137.269 92.285 137.221 92.5146 137.125L92.515 137.125C92.982 136.928 98.5983 134.524 104.572 129.998C110.54 125.475 116.907 118.802 118.804 110.058C121.066 99.6326 115.217 92.1545 108.802 89.6303C102.383 87.1009 95.7574 89.1093 91.3189 94.6895C87.2397 89.8 81.4815 87.805 75.7627 89.3459C76.9352 86.1292 80.0234 83.825 83.6429 83.825H89.4568C95.1783 83.825 99.8339 79.1791 99.8339 73.4655V24.4808C99.8339 17.9845 94.5403 12.7 88.0332 12.7H43.5007C36.9952 12.7 31.7 17.9845 31.7 24.4808V73.4655C31.7 79.1791 36.3556 83.825 42.0771 83.825H47.8911C52.5161 83.825 56.2781 87.5811 56.2833 92.1239L54.7296 126.265L54.7293 126.265V126.279C54.7293 132.356 59.6814 137.3 65.7677 137.3C71.087 137.3 75.5263 133.521 76.564 128.512C83.4481 134.065 90.5892 136.933 91.1184 137.141ZM115.181 109.275L115.45 109.333L115.181 109.275C113.663 116.28 108.65 121.93 103.557 126.038C98.5859 130.047 93.5744 132.559 91.7707 133.402C89.9473 132.603 84.8799 130.214 79.8176 126.324C74.6308 122.339 69.4877 116.807 67.8028 109.828C65.7979 101.526 70.2263 95.5249 75.1585 93.4503C76.4957 92.8878 78.0056 92.5453 79.5785 92.5453C83.0416 92.5453 86.8451 94.1983 89.7881 98.873C90.1179 99.3981 90.7248 99.7987 91.3906 99.7386C92.0297 99.7268 92.6191 99.3875 92.947 98.8357L92.6891 98.6824L92.9466 98.8363C95.0059 95.3894 97.5542 93.5325 100.113 92.742C102.676 91.9499 105.275 92.2202 107.443 93.0732C112.423 95.033 116.993 100.927 115.181 109.275ZM59.9864 92.2155L59.9867 92.2156V92.2019C59.9867 85.5413 54.5611 80.125 47.8911 80.125H42.0771C38.3984 80.125 35.4049 77.1356 35.4049 73.4655V24.4808C35.4049 20.0265 39.0364 16.4 43.5007 16.4H88.0332C92.4975 16.4 96.129 20.0265 96.129 24.4808V73.4655C96.129 77.1371 93.1356 80.125 89.4568 80.125H83.6429C77.3303 80.125 72.1442 84.9806 71.6055 91.1449C66.1929 94.4811 61.9787 101.5 64.2 110.696C65.6302 116.619 69.1114 121.532 73.0997 125.445V126.28C73.0997 130.316 69.8097 133.602 65.7662 133.602C61.7232 133.602 58.4364 130.318 58.4312 126.358L59.9864 92.2155Z" fill="black" stroke="black" stroke-width="0.6"/>
<path d="M91.3 69.211V25.789C91.3 22.4345 88.608 19.7 85.2887 19.7H45.7113C42.392 19.7 39.7 22.4345 39.7 25.789V69.211C39.7 72.5655 42.392 75.3 45.7113 75.3H85.2872C88.6064 75.3 91.3 72.5656 91.3 69.211ZM43.364 69.211V25.789C43.364 24.4724 44.4209 23.4057 45.7113 23.4057H85.2872C86.5777 23.4057 87.6345 24.471 87.6345 25.789V69.211C87.6345 70.5276 86.5776 71.5943 85.2872 71.5943H45.7113C44.4209 71.5943 43.364 70.5276 43.364 69.211Z" fill="black" stroke="black" stroke-width="0.6"/>
<path d="M79.1285 55.2449L71.2446 63.1291C70.5185 63.8553 70.5185 65.0296 71.2446 65.7558C71.6067 66.1179 72.0827 66.3 72.5579 66.3C73.0331 66.3 73.5091 66.1179 73.8712 65.7558L81.7554 57.8713C82.4815 57.1451 82.4815 55.9708 81.7554 55.2446C81.0294 54.5186 79.8533 54.5182 79.1285 55.2449Z" fill="black" stroke="black" stroke-width="0.6"/>
<path d="M80.7625 48.0214L80.7628 48.0211C81.4789 47.2609 81.4793 46.0365 80.7625 45.2776C80.0351 44.5075 78.8514 44.5075 78.124 45.2776L64.2386 59.979C63.5205 60.7395 63.5205 61.9624 64.2386 62.7228C64.5993 63.1047 65.0771 63.3 65.5579 63.3C66.0388 63.3 66.5165 63.1047 66.8772 62.7228L80.7625 48.0214Z" fill="black" stroke="black" stroke-width="0.6"/>
</svg>
