<svg width="150" height="150" viewBox="0 0 150 150" fill="none" xmlns="http://www.w3.org/2000/svg">
<mask id="path-1-outside-1_251_1157" maskUnits="userSpaceOnUse" x="15.6309" y="6.51758" width="119" height="137" fill="black">
<rect fill="white" x="15.6309" y="6.51758" width="119" height="137"/>
<path d="M124.8 88.1561H123.704C122.957 86.7027 122.026 85.3515 120.933 84.1361V53.4506C120.933 41.2684 116.094 29.5851 107.48 20.971C98.8657 12.3569 87.1824 7.51758 75.0002 7.51758C62.818 7.51758 51.1348 12.3569 42.5207 20.971C33.9066 29.5851 29.0672 41.2684 29.0672 53.4506V84.1361C27.9749 85.3515 27.0438 86.7027 26.2967 88.1561H25.2002C22.9172 88.1861 20.7378 89.1141 19.134 90.7391C17.5301 92.3642 16.6309 94.5556 16.6309 96.8388C16.6309 99.1221 17.5301 101.313 19.134 102.939C20.7378 104.564 22.9172 105.492 25.2002 105.522H26.2967C27.0802 107.047 28.0661 108.46 29.2277 109.722V125.368C29.2329 128.464 30.4652 131.432 32.6546 133.622C34.844 135.811 37.812 137.043 40.9082 137.049H63.1082C63.4734 138.594 64.3491 139.972 65.5938 140.958C66.8385 141.944 68.3795 142.482 69.9677 142.485H80.0357C81.9055 142.485 83.6987 141.742 85.0208 140.42C86.343 139.098 87.0857 137.304 87.0857 135.435C87.0857 133.565 86.343 131.772 85.0208 130.449C83.6987 129.127 81.9055 128.385 80.0357 128.385H69.9662C68.3776 128.385 66.8358 128.923 65.5908 129.909C64.3457 130.896 63.4704 132.274 63.1067 133.821H40.9067C38.6653 133.818 36.5164 132.927 34.9315 131.342C33.3466 129.757 32.4551 127.608 32.4527 125.367V112.527C35.1394 114.382 38.2619 115.507 41.5142 115.792C41.7133 118.019 42.7637 120.083 44.4465 121.554C46.1294 123.026 48.315 123.792 50.5484 123.692C52.7817 123.593 54.8906 122.635 56.4358 121.02C57.981 119.404 58.8435 117.255 58.8437 115.02V78.6596C58.8439 76.4239 57.9817 74.2743 56.4366 72.6585C54.8915 71.0427 52.7826 70.0852 50.5491 69.9854C48.3157 69.8857 46.1298 70.6514 44.4468 72.123C42.7638 73.5946 41.7133 75.6588 41.5142 77.8856C41.1212 77.9216 40.7327 77.9696 40.3457 78.0281V53.4506C40.3457 44.2598 43.9967 35.4455 50.4956 28.9467C56.9944 22.4478 65.8087 18.7968 74.9995 18.7968C84.1902 18.7968 93.0045 22.4478 99.5034 28.9467C106.002 35.4455 109.653 44.2598 109.653 53.4506V78.0281C109.266 77.9691 108.876 77.9216 108.483 77.8856C108.284 75.6588 107.234 73.5946 105.551 72.123C103.868 70.6514 101.682 69.8857 99.4483 69.9854C97.2149 70.0852 95.106 71.0427 93.5609 72.6585C92.0158 74.2743 91.1535 76.4239 91.1537 78.6596V115.02C91.1539 117.255 92.0164 119.404 93.5617 121.02C95.1069 122.635 97.2158 123.593 99.4491 123.692C101.682 123.792 103.868 123.026 105.551 121.554C107.234 120.083 108.284 118.019 108.483 115.792C111.68 115.501 114.751 114.407 117.412 112.611C120.072 110.816 122.236 108.377 123.702 105.522H124.8C127.083 105.492 129.263 104.564 130.866 102.939C132.47 101.313 133.37 99.1221 133.37 96.8388C133.37 94.5556 132.47 92.3642 130.866 90.7391C129.263 89.1141 127.083 88.1861 124.8 88.1561ZM69.9662 131.613H80.0342C81.0487 131.613 82.0216 132.016 82.7389 132.733C83.4562 133.45 83.8592 134.423 83.8592 135.438C83.8592 136.452 83.4562 137.425 82.7389 138.142C82.0216 138.86 81.0487 139.263 80.0342 139.263H69.9662C68.9518 139.263 67.9789 138.86 67.2615 138.142C66.5442 137.425 66.1412 136.452 66.1412 135.438C66.1412 134.423 66.5442 133.45 67.2615 132.733C67.9789 132.016 68.9518 131.613 69.9662 131.613ZM41.4797 81.1301V112.549C37.622 112.102 34.0618 110.257 31.4732 107.362C28.8845 104.467 27.4468 100.723 27.4322 96.8396C27.4097 92.9455 28.8345 89.182 31.4302 86.2792C34.0259 83.3764 37.6074 81.5413 41.4797 81.1301ZM19.7447 96.8396C19.7472 95.4295 20.2951 94.075 21.2737 93.0598C22.2523 92.0446 23.5857 91.4473 24.9947 91.3931C23.9447 94.9482 23.9447 98.731 24.9947 102.286C23.5857 102.232 22.2523 101.635 21.2737 100.619C20.2951 99.6041 19.7472 98.2497 19.7447 96.8396ZM44.7002 78.6596C44.724 77.2282 45.3093 75.8634 46.3299 74.8595C47.3506 73.8556 48.7249 73.293 50.1565 73.293C51.5881 73.293 52.9624 73.8556 53.983 74.8595C55.0037 75.8634 55.589 77.2282 55.6127 78.6596V115.02C55.589 116.451 55.0037 117.816 53.983 118.82C52.9624 119.824 51.5881 120.386 50.1565 120.386C48.7249 120.386 47.3506 119.824 46.3299 118.82C45.3093 117.816 44.724 116.451 44.7002 115.02V78.6596ZM101.748 26.7011C96.4509 21.4183 89.7079 17.8224 82.3695 16.3669C75.0312 14.9115 67.4262 15.6616 60.5136 18.5227C53.601 21.3839 47.6905 26.2278 43.5273 32.4438C39.3642 38.6598 37.135 45.9693 37.1207 53.4506V78.8111C35.402 79.3925 33.7763 80.2191 32.2937 81.2651V53.4506C32.2937 42.1241 36.7932 31.2615 44.8022 23.2525C52.8112 15.2435 63.6738 10.7441 75.0002 10.7441C86.3267 10.7441 97.1893 15.2435 105.198 23.2525C113.207 31.2615 117.707 42.1241 117.707 53.4506V81.2651C116.224 80.2191 114.598 79.3925 112.88 78.8111V53.4506C112.885 48.4773 111.904 43.5524 109.993 38.9608C108.083 34.3692 105.28 30.2023 101.748 26.7011ZM105.3 115.02C105.276 116.451 104.691 117.816 103.671 118.82C102.65 119.824 101.276 120.386 99.844 120.386C98.4124 120.386 97.0381 119.824 96.0174 118.82C94.9968 117.816 94.4115 116.451 94.3877 115.02V78.6596C94.4115 77.2282 94.9968 75.8634 96.0174 74.8595C97.0381 73.8556 98.4124 73.293 99.844 73.293C101.276 73.293 102.65 73.8556 103.671 74.8595C104.691 75.8634 105.276 77.2282 105.3 78.6596V115.02ZM108.527 112.549V81.1301C112.399 81.5413 115.981 83.3764 118.576 86.2792C121.172 89.182 122.597 92.9455 122.574 96.8396C122.56 100.724 121.121 104.468 118.531 107.363C115.941 110.259 112.38 112.104 108.521 112.549H108.527ZM125.007 102.286C126.057 98.731 126.057 94.9482 125.007 91.3931C126.42 91.44 127.76 92.0344 128.743 93.0507C129.726 94.067 130.276 95.4256 130.276 96.8396C130.276 98.2536 129.726 99.6122 128.743 100.628C127.76 101.645 126.42 102.239 125.007 102.286Z"/>
</mask>
<path d="M124.8 88.1561H123.704C122.957 86.7027 122.026 85.3515 120.933 84.1361V53.4506C120.933 41.2684 116.094 29.5851 107.48 20.971C98.8657 12.3569 87.1824 7.51758 75.0002 7.51758C62.818 7.51758 51.1348 12.3569 42.5207 20.971C33.9066 29.5851 29.0672 41.2684 29.0672 53.4506V84.1361C27.9749 85.3515 27.0438 86.7027 26.2967 88.1561H25.2002C22.9172 88.1861 20.7378 89.1141 19.134 90.7391C17.5301 92.3642 16.6309 94.5556 16.6309 96.8388C16.6309 99.1221 17.5301 101.313 19.134 102.939C20.7378 104.564 22.9172 105.492 25.2002 105.522H26.2967C27.0802 107.047 28.0661 108.46 29.2277 109.722V125.368C29.2329 128.464 30.4652 131.432 32.6546 133.622C34.844 135.811 37.812 137.043 40.9082 137.049H63.1082C63.4734 138.594 64.3491 139.972 65.5938 140.958C66.8385 141.944 68.3795 142.482 69.9677 142.485H80.0357C81.9055 142.485 83.6987 141.742 85.0208 140.42C86.343 139.098 87.0857 137.304 87.0857 135.435C87.0857 133.565 86.343 131.772 85.0208 130.449C83.6987 129.127 81.9055 128.385 80.0357 128.385H69.9662C68.3776 128.385 66.8358 128.923 65.5908 129.909C64.3457 130.896 63.4704 132.274 63.1067 133.821H40.9067C38.6653 133.818 36.5164 132.927 34.9315 131.342C33.3466 129.757 32.4551 127.608 32.4527 125.367V112.527C35.1394 114.382 38.2619 115.507 41.5142 115.792C41.7133 118.019 42.7637 120.083 44.4465 121.554C46.1294 123.026 48.315 123.792 50.5484 123.692C52.7817 123.593 54.8906 122.635 56.4358 121.02C57.981 119.404 58.8435 117.255 58.8437 115.02V78.6596C58.8439 76.4239 57.9817 74.2743 56.4366 72.6585C54.8915 71.0427 52.7826 70.0852 50.5491 69.9854C48.3157 69.8857 46.1298 70.6514 44.4468 72.123C42.7638 73.5946 41.7133 75.6588 41.5142 77.8856C41.1212 77.9216 40.7327 77.9696 40.3457 78.0281V53.4506C40.3457 44.2598 43.9967 35.4455 50.4956 28.9467C56.9944 22.4478 65.8087 18.7968 74.9995 18.7968C84.1902 18.7968 93.0045 22.4478 99.5034 28.9467C106.002 35.4455 109.653 44.2598 109.653 53.4506V78.0281C109.266 77.9691 108.876 77.9216 108.483 77.8856C108.284 75.6588 107.234 73.5946 105.551 72.123C103.868 70.6514 101.682 69.8857 99.4483 69.9854C97.2149 70.0852 95.106 71.0427 93.5609 72.6585C92.0158 74.2743 91.1535 76.4239 91.1537 78.6596V115.02C91.1539 117.255 92.0164 119.404 93.5617 121.02C95.1069 122.635 97.2158 123.593 99.4491 123.692C101.682 123.792 103.868 123.026 105.551 121.554C107.234 120.083 108.284 118.019 108.483 115.792C111.68 115.501 114.751 114.407 117.412 112.611C120.072 110.816 122.236 108.377 123.702 105.522H124.8C127.083 105.492 129.263 104.564 130.866 102.939C132.47 101.313 133.37 99.1221 133.37 96.8388C133.37 94.5556 132.47 92.3642 130.866 90.7391C129.263 89.1141 127.083 88.1861 124.8 88.1561ZM69.9662 131.613H80.0342C81.0487 131.613 82.0216 132.016 82.7389 132.733C83.4562 133.45 83.8592 134.423 83.8592 135.438C83.8592 136.452 83.4562 137.425 82.7389 138.142C82.0216 138.86 81.0487 139.263 80.0342 139.263H69.9662C68.9518 139.263 67.9789 138.86 67.2615 138.142C66.5442 137.425 66.1412 136.452 66.1412 135.438C66.1412 134.423 66.5442 133.45 67.2615 132.733C67.9789 132.016 68.9518 131.613 69.9662 131.613ZM41.4797 81.1301V112.549C37.622 112.102 34.0618 110.257 31.4732 107.362C28.8845 104.467 27.4468 100.723 27.4322 96.8396C27.4097 92.9455 28.8345 89.182 31.4302 86.2792C34.0259 83.3764 37.6074 81.5413 41.4797 81.1301ZM19.7447 96.8396C19.7472 95.4295 20.2951 94.075 21.2737 93.0598C22.2523 92.0446 23.5857 91.4473 24.9947 91.3931C23.9447 94.9482 23.9447 98.731 24.9947 102.286C23.5857 102.232 22.2523 101.635 21.2737 100.619C20.2951 99.6041 19.7472 98.2497 19.7447 96.8396ZM44.7002 78.6596C44.724 77.2282 45.3093 75.8634 46.3299 74.8595C47.3506 73.8556 48.7249 73.293 50.1565 73.293C51.5881 73.293 52.9624 73.8556 53.983 74.8595C55.0037 75.8634 55.589 77.2282 55.6127 78.6596V115.02C55.589 116.451 55.0037 117.816 53.983 118.82C52.9624 119.824 51.5881 120.386 50.1565 120.386C48.7249 120.386 47.3506 119.824 46.3299 118.82C45.3093 117.816 44.724 116.451 44.7002 115.02V78.6596ZM101.748 26.7011C96.4509 21.4183 89.7079 17.8224 82.3695 16.3669C75.0312 14.9115 67.4262 15.6616 60.5136 18.5227C53.601 21.3839 47.6905 26.2278 43.5273 32.4438C39.3642 38.6598 37.135 45.9693 37.1207 53.4506V78.8111C35.402 79.3925 33.7763 80.2191 32.2937 81.2651V53.4506C32.2937 42.1241 36.7932 31.2615 44.8022 23.2525C52.8112 15.2435 63.6738 10.7441 75.0002 10.7441C86.3267 10.7441 97.1893 15.2435 105.198 23.2525C113.207 31.2615 117.707 42.1241 117.707 53.4506V81.2651C116.224 80.2191 114.598 79.3925 112.88 78.8111V53.4506C112.885 48.4773 111.904 43.5524 109.993 38.9608C108.083 34.3692 105.28 30.2023 101.748 26.7011ZM105.3 115.02C105.276 116.451 104.691 117.816 103.671 118.82C102.65 119.824 101.276 120.386 99.844 120.386C98.4124 120.386 97.0381 119.824 96.0174 118.82C94.9968 117.816 94.4115 116.451 94.3877 115.02V78.6596C94.4115 77.2282 94.9968 75.8634 96.0174 74.8595C97.0381 73.8556 98.4124 73.293 99.844 73.293C101.276 73.293 102.65 73.8556 103.671 74.8595C104.691 75.8634 105.276 77.2282 105.3 78.6596V115.02ZM108.527 112.549V81.1301C112.399 81.5413 115.981 83.3764 118.576 86.2792C121.172 89.182 122.597 92.9455 122.574 96.8396C122.56 100.724 121.121 104.468 118.531 107.363C115.941 110.259 112.38 112.104 108.521 112.549H108.527ZM125.007 102.286C126.057 98.731 126.057 94.9482 125.007 91.3931C126.42 91.44 127.76 92.0344 128.743 93.0507C129.726 94.067 130.276 95.4256 130.276 96.8396C130.276 98.2536 129.726 99.6122 128.743 100.628C127.76 101.645 126.42 102.239 125.007 102.286Z" fill="black"/>
<path d="M29.0309 109.948L32.2559 112.753L32.6496 112.3L29.4246 109.495L29.0309 109.948ZM124.8 88.1561L124.808 87.5561H124.8V88.1561ZM123.704 88.1561L123.17 88.4304L123.338 88.7561H123.704V88.1561ZM120.933 84.1361H120.333V84.3661L120.487 84.5371L120.933 84.1361ZM75.0002 7.51758V6.91758V7.51758ZM29.0672 53.4506H28.4672H29.0672ZM29.0672 84.1361L29.5135 84.5371L29.6672 84.3661V84.1361H29.0672ZM26.2967 88.1561V88.7561H26.663L26.8304 88.4304L26.2967 88.1561ZM25.2002 88.1561V87.556L25.1923 87.5561L25.2002 88.1561ZM16.6309 96.8388H17.2309H16.6309ZM25.2002 105.522L25.1923 106.122H25.2002V105.522ZM26.2967 105.522L26.8305 105.247L26.6631 104.922H26.2967V105.522ZM29.2277 109.722H29.8277V109.487L29.6691 109.315L29.2277 109.722ZM29.2277 125.368L28.6277 125.368L28.6277 125.369L29.2277 125.368ZM40.9082 137.049L40.9072 137.649H40.9082V137.049ZM63.1082 137.049L63.6922 136.911L63.583 136.449H63.1082V137.049ZM69.9677 142.485L69.9668 143.085H69.9677V142.485ZM80.0357 142.485V141.885V142.485ZM80.0357 128.385V128.985V128.385ZM69.9662 128.385V127.785L69.966 127.785L69.9662 128.385ZM63.1067 133.821V134.421H63.582L63.6908 133.958L63.1067 133.821ZM40.9067 133.821L40.9061 134.421H40.9067V133.821ZM32.4527 125.367L31.8527 125.367L31.8527 125.367L32.4527 125.367ZM32.4527 112.527L32.7936 112.033L31.8527 111.383V112.527H32.4527ZM41.5142 115.792L42.1119 115.739L42.0671 115.238L41.5667 115.194L41.5142 115.792ZM58.8437 115.02L59.4437 115.02V115.02H58.8437ZM58.8437 78.6596L58.2437 78.6595V78.6596H58.8437ZM41.5142 77.8856L41.569 78.4831L42.0673 78.4374L42.1119 77.939L41.5142 77.8856ZM40.3457 78.0281H39.7457V78.7256L40.4354 78.6213L40.3457 78.0281ZM40.3457 53.4506H39.7457H40.3457ZM74.9995 18.7968V18.1968V18.7968ZM109.653 78.0281L109.563 78.6212L110.253 78.7265V78.0281H109.653ZM108.483 77.8856L107.886 77.939L107.93 78.4374L108.428 78.4831L108.483 77.8856ZM91.1537 78.6596L91.7537 78.6596L91.7537 78.6595L91.1537 78.6596ZM91.1537 115.02L90.5537 115.02L90.5537 115.02L91.1537 115.02ZM108.483 115.792L108.429 115.195L107.93 115.24L107.886 115.739L108.483 115.792ZM123.702 105.522V104.922H123.336L123.168 105.248L123.702 105.522ZM124.8 105.522V106.122L124.808 106.122L124.8 105.522ZM41.4797 81.1301H42.0797V80.463L41.4164 80.5334L41.4797 81.1301ZM41.4797 112.549L41.4107 113.145L42.0797 113.223V112.549H41.4797ZM27.4322 96.8396L28.0322 96.8373L28.0322 96.8361L27.4322 96.8396ZM19.7447 96.8396L19.1447 96.8385L19.1447 96.8406L19.7447 96.8396ZM24.9947 91.3931L25.5702 91.563L25.8069 90.7614L24.9717 90.7935L24.9947 91.3931ZM24.9947 102.286L24.9717 102.886L25.8069 102.918L25.5702 102.116L24.9947 102.286ZM44.7002 78.6596L44.1002 78.6496V78.6596H44.7002ZM55.6127 78.6596H56.2128L56.2127 78.6496L55.6127 78.6596ZM55.6127 115.02L56.2127 115.03V115.02H55.6127ZM44.7002 115.02H44.1001L44.1003 115.03L44.7002 115.02ZM101.748 26.7011L101.325 27.1259L101.326 27.1272L101.748 26.7011ZM37.1207 53.4506L36.5207 53.4494V53.4506H37.1207ZM37.1207 78.8111L37.313 79.3794L37.7207 79.2415V78.8111H37.1207ZM32.2937 81.2651H31.6937V82.4227L32.6396 81.7553L32.2937 81.2651ZM75.0002 10.7441V10.1441V10.7441ZM117.707 53.4506H118.307H117.707ZM117.707 81.2651L117.361 81.7553L118.307 82.4227V81.2651H117.707ZM112.88 78.8111H112.28V79.2415L112.687 79.3794L112.88 78.8111ZM112.88 53.4506L112.28 53.4499V53.4506H112.88ZM105.3 115.02L105.9 115.03V115.02H105.3ZM99.844 120.386L99.844 119.786L99.844 120.386ZM94.3877 115.02H93.7876L93.7878 115.03L94.3877 115.02ZM94.3877 78.6596L93.7877 78.6496V78.6596H94.3877ZM99.844 73.293V72.693V73.293ZM105.3 78.6596H105.9L105.9 78.6496L105.3 78.6596ZM108.527 112.549V113.149H109.127V112.549H108.527ZM108.527 81.1301L108.59 80.5334L107.927 80.463V81.1301H108.527ZM122.574 96.8396L121.974 96.8361L121.974 96.8373L122.574 96.8396ZM108.521 112.549L108.452 111.953L108.521 113.149V112.549ZM125.007 102.286L124.432 102.116L124.196 102.913L125.027 102.886L125.007 102.286ZM125.007 91.3931L125.027 90.7934L124.196 90.7658L124.432 91.563L125.007 91.3931ZM130.276 96.8396L130.876 96.8396L130.276 96.8396ZM124.8 87.5561H123.704V88.7561H124.8V87.5561ZM124.237 87.8818C123.467 86.3825 122.506 84.9888 121.38 83.735L120.487 84.5371C121.545 85.7143 122.447 87.0228 123.17 88.4304L124.237 87.8818ZM121.533 84.1361V53.4506H120.333V84.1361H121.533ZM121.533 53.4506C121.533 41.1093 116.631 29.2734 107.904 20.5468L107.056 21.3953C115.557 29.8969 120.333 41.4275 120.333 53.4506H121.533ZM107.904 20.5468C99.1774 11.8201 87.3416 6.91758 75.0002 6.91758V8.11758C87.0233 8.11758 98.5539 12.8937 107.056 21.3953L107.904 20.5468ZM75.0002 6.91758C62.6589 6.91758 50.8231 11.8201 42.0964 20.5468L42.945 21.3953C51.4465 12.8937 62.9772 8.11758 75.0002 8.11758V6.91758ZM42.0964 20.5468C33.3698 29.2734 28.4672 41.1093 28.4672 53.4506H29.6672C29.6672 41.4275 34.4434 29.8969 42.945 21.3953L42.0964 20.5468ZM28.4672 53.4506V84.1361H29.6672V53.4506H28.4672ZM28.621 83.735C27.4942 84.9888 26.5337 86.3825 25.7631 87.8818L26.8304 88.4304C27.5539 87.0228 28.4557 85.7143 29.5135 84.5371L28.621 83.735ZM26.2967 87.5561H25.2002V88.7561H26.2967V87.5561ZM25.1923 87.5561C22.7516 87.5882 20.4216 88.5803 18.7069 90.3177L19.561 91.1606C21.0541 89.6478 23.0828 88.784 25.2081 88.756L25.1923 87.5561ZM18.7069 90.3177C16.9923 92.055 16.0309 94.3978 16.0309 96.8388H17.2309C17.2309 94.7134 18.068 92.6734 19.561 91.1606L18.7069 90.3177ZM16.0309 96.8388C16.0309 99.2798 16.9923 101.623 18.7069 103.36L19.561 102.517C18.068 101.004 17.2309 98.9643 17.2309 96.8388H16.0309ZM18.7069 103.36C20.4216 105.097 22.7516 106.089 25.1923 106.122L25.2081 104.922C23.0828 104.894 21.0541 104.03 19.561 102.517L18.7069 103.36ZM25.2002 106.122H26.2967V104.922H25.2002V106.122ZM25.763 105.796C26.5712 107.369 27.5881 108.827 28.7863 110.128L29.6691 109.315C28.5441 108.093 27.5893 106.725 26.8305 105.247L25.763 105.796ZM28.6277 109.722V125.368H29.8277V109.722H28.6277ZM28.6277 125.369C28.6332 128.624 29.9286 131.744 32.2303 134.046L33.0788 133.197C31.0017 131.12 29.8326 128.305 29.8277 125.367L28.6277 125.369ZM32.2303 134.046C34.532 136.348 37.6522 137.643 40.9072 137.649L40.9092 136.449C37.9717 136.444 35.156 135.275 33.0788 133.197L32.2303 134.046ZM40.9082 137.649H63.1082V136.449H40.9082V137.649ZM62.5243 137.187C62.9205 138.864 63.8706 140.358 65.2212 141.428L65.9665 140.488C64.8276 139.585 64.0263 138.325 63.6922 136.911L62.5243 137.187ZM65.2212 141.428C66.5717 142.498 68.2437 143.082 69.9668 143.085L69.9686 141.885C68.5154 141.882 67.1054 141.39 65.9665 140.488L65.2212 141.428ZM69.9677 143.085H80.0357V141.885H69.9677V143.085ZM80.0357 143.085C82.0646 143.085 84.0104 142.279 85.4451 140.844L84.5966 139.995C83.387 141.205 81.7464 141.885 80.0357 141.885V143.085ZM85.4451 140.844C86.8797 139.409 87.6857 137.463 87.6857 135.435H86.4857C86.4857 137.145 85.8062 138.786 84.5966 139.995L85.4451 140.844ZM87.6857 135.435C87.6857 133.406 86.8797 131.46 85.4451 130.025L84.5966 130.874C85.8062 132.083 86.4857 133.724 86.4857 135.435H87.6857ZM85.4451 130.025C84.0104 128.591 82.0646 127.785 80.0357 127.785V128.985C81.7464 128.985 83.387 129.664 84.5966 130.874L85.4451 130.025ZM80.0357 127.785H69.9662V128.985H80.0357V127.785ZM69.966 127.785C68.2421 127.785 66.5691 128.368 65.2181 129.439L65.9634 130.379C67.1025 129.477 68.5131 128.985 69.9665 128.985L69.966 127.785ZM65.2181 129.439C63.8671 130.51 62.9173 132.005 62.5227 133.683L63.6908 133.958C64.0235 132.543 64.8244 131.282 65.9634 130.379L65.2181 129.439ZM63.1067 133.221H40.9067V134.421H63.1067V133.221ZM40.9074 133.221C38.8249 133.218 36.8283 132.39 35.3557 130.918L34.5072 131.766C36.2045 133.463 38.5058 134.418 40.9061 134.421L40.9074 133.221ZM35.3557 130.918C33.8832 129.445 33.0549 127.448 33.0527 125.366L31.8527 125.367C31.8553 127.768 32.8099 130.069 34.5072 131.766L35.3557 130.918ZM33.0527 125.367V112.527H31.8527V125.367H33.0527ZM32.1118 113.02C34.884 114.934 38.1059 116.095 41.4618 116.39L41.5667 115.194C38.4178 114.918 35.3948 113.829 32.7936 112.033L32.1118 113.02ZM40.9166 115.846C41.1295 118.226 42.2524 120.433 44.0516 122.006L44.8415 121.103C43.2749 119.733 42.2972 117.811 42.1119 115.739L40.9166 115.846ZM44.0516 122.006C45.8507 123.579 48.1874 124.398 50.5751 124.292L50.5217 123.093C48.4427 123.186 46.408 122.473 44.8415 121.103L44.0516 122.006ZM50.5751 124.292C52.9628 124.185 55.2174 123.162 56.8694 121.435L56.0022 120.605C54.5638 122.109 52.6006 123 50.5217 123.093L50.5751 124.292ZM56.8694 121.435C58.5214 119.708 59.4435 117.41 59.4437 115.02L58.2437 115.02C58.2436 117.101 57.4407 119.101 56.0022 120.605L56.8694 121.435ZM59.4437 115.02V78.6596H58.2437V115.02H59.4437ZM59.4437 78.6596C59.4439 76.2694 58.5221 73.9713 56.8702 72.2438L56.0029 73.0732C57.4413 74.5773 58.2439 76.5783 58.2437 78.6595L59.4437 78.6596ZM56.8702 72.2438C55.2183 70.5163 52.9637 69.4927 50.5759 69.386L50.5223 70.5848C52.6014 70.6777 54.5646 71.569 56.0029 73.0732L56.8702 72.2438ZM50.5759 69.386C48.1881 69.2794 45.8512 70.098 44.0519 71.6713L44.8418 72.5747C46.4085 71.2047 48.4432 70.492 50.5223 70.5848L50.5759 69.386ZM44.0519 71.6713C42.2525 73.2446 41.1295 75.4515 40.9166 77.8321L42.1119 77.939C42.2972 75.8661 43.2751 73.9446 44.8418 72.5747L44.0519 71.6713ZM41.4595 77.2881C41.054 77.3252 40.6538 77.3747 40.2561 77.4348L40.4354 78.6213C40.8117 78.5645 41.1885 78.5179 41.569 78.4831L41.4595 77.2881ZM40.9457 78.0281V53.4506H39.7457V78.0281H40.9457ZM40.9457 53.4506C40.9457 44.419 44.5335 35.7573 50.9198 29.3709L50.0713 28.5224C43.46 35.1338 39.7457 44.1007 39.7457 53.4506H40.9457ZM50.9198 29.3709C57.3062 22.9846 65.9679 19.3968 74.9995 19.3968V18.1968C65.6496 18.1968 56.6827 21.9111 50.0713 28.5224L50.9198 29.3709ZM74.9995 19.3968C84.0311 19.3968 92.6928 22.9846 99.0791 29.3709L99.9277 28.5224C93.3163 21.9111 84.3494 18.1968 74.9995 18.1968V19.3968ZM99.0791 29.3709C105.465 35.7573 109.053 44.419 109.053 53.4506H110.253C110.253 44.1007 106.539 35.1338 99.9277 28.5224L99.0791 29.3709ZM109.053 53.4506V78.0281H110.253V53.4506H109.053ZM109.744 77.4349C109.345 77.3741 108.943 77.3252 108.538 77.2881L108.428 78.4831C108.81 78.518 109.188 78.564 109.563 78.6212L109.744 77.4349ZM109.081 77.8321C108.868 75.4515 107.745 73.2446 105.946 71.6713L105.156 72.5747C106.722 73.9446 107.7 75.8661 107.886 77.939L109.081 77.8321ZM105.946 71.6713C104.146 70.098 101.809 69.2794 99.4216 69.386L99.4751 70.5848C101.554 70.492 103.589 71.2047 105.156 72.5747L105.946 71.6713ZM99.4216 69.386C97.0338 69.4927 94.7792 70.5163 93.1273 72.2438L93.9945 73.0732C95.4329 71.569 97.396 70.6777 99.4751 70.5848L99.4216 69.386ZM93.1273 72.2438C91.4754 73.9713 90.5535 76.2694 90.5537 78.6596L91.7537 78.6595C91.7535 76.5783 92.5562 74.5773 93.9945 73.0732L93.1273 72.2438ZM90.5537 78.6596V115.02H91.7537V78.6596H90.5537ZM90.5537 115.02C90.5539 117.41 91.4761 119.708 93.1281 121.435L93.9953 120.605C92.5568 119.101 91.7539 117.101 91.7537 115.02L90.5537 115.02ZM93.1281 121.435C94.7801 123.162 97.0347 124.185 99.4224 124.292L99.4758 123.093C97.3968 123 95.4337 122.109 93.9953 120.605L93.1281 121.435ZM99.4224 124.292C101.81 124.398 104.147 123.579 105.946 122.006L105.156 121.103C103.589 122.473 101.555 123.186 99.4758 123.093L99.4224 124.292ZM105.946 122.006C107.745 120.433 108.868 118.226 109.081 115.846L107.886 115.739C107.7 117.811 106.723 119.733 105.156 121.103L105.946 122.006ZM108.538 116.39C111.835 116.089 115.003 114.961 117.747 113.109L117.076 112.114C114.499 113.853 111.525 114.913 108.429 115.195L108.538 116.39ZM117.747 113.109C120.492 111.257 122.724 108.741 124.236 105.796L123.168 105.248C121.749 108.013 119.653 110.375 117.076 112.114L117.747 113.109ZM123.702 106.122H124.8V104.922H123.702V106.122ZM124.808 106.122C127.249 106.089 129.579 105.097 131.294 103.36L130.439 102.517C128.946 104.03 126.918 104.894 124.792 104.922L124.808 106.122ZM131.294 103.36C133.008 101.623 133.97 99.2798 133.97 96.8388H132.77C132.77 98.9643 131.932 101.004 130.439 102.517L131.294 103.36ZM133.97 96.8388C133.97 94.3978 133.008 92.055 131.294 90.3177L130.439 91.1606C131.932 92.6734 132.77 94.7134 132.77 96.8388H133.97ZM131.294 90.3177C129.579 88.5803 127.249 87.5882 124.808 87.5561L124.792 88.756C126.918 88.784 128.946 89.6478 130.439 91.1606L131.294 90.3177ZM69.9662 132.213H80.0342V131.013H69.9662V132.213ZM80.0342 132.213C80.8896 132.213 81.7098 132.552 82.3147 133.157L83.1632 132.309C82.3333 131.479 81.2078 131.013 80.0342 131.013V132.213ZM82.3147 133.157C82.9195 133.762 83.2592 134.582 83.2592 135.438H84.4592C84.4592 134.264 83.993 133.138 83.1632 132.309L82.3147 133.157ZM83.2592 135.438C83.2592 136.293 82.9195 137.113 82.3147 137.718L83.1632 138.567C83.993 137.737 84.4592 136.611 84.4592 135.438H83.2592ZM82.3147 137.718C81.7098 138.323 80.8896 138.663 80.0342 138.663V139.863C81.2078 139.863 82.3333 139.396 83.1632 138.567L82.3147 137.718ZM80.0342 138.663H69.9662V139.863H80.0342V138.663ZM69.9662 138.663C69.1109 138.663 68.2906 138.323 67.6858 137.718L66.8373 138.567C67.6671 139.396 68.7926 139.863 69.9662 139.863V138.663ZM67.6858 137.718C67.081 137.113 66.7412 136.293 66.7412 135.438H65.5412C65.5412 136.611 66.0074 137.737 66.8373 138.567L67.6858 137.718ZM66.7412 135.438C66.7412 134.582 67.081 133.762 67.6858 133.157L66.8373 132.309C66.0074 133.138 65.5412 134.264 65.5412 135.438H66.7412ZM67.6858 133.157C68.2906 132.552 69.1109 132.213 69.9662 132.213V131.013C68.7926 131.013 67.6671 131.479 66.8373 132.309L67.6858 133.157ZM40.8797 81.1301V112.549H42.0797V81.1301H40.8797ZM41.5488 111.953C37.8368 111.523 34.4113 109.747 31.9204 106.962L31.0259 107.762C33.7124 110.766 37.4071 112.681 41.4107 113.145L41.5488 111.953ZM31.9204 106.962C29.4296 104.176 28.0462 100.574 28.0322 96.8373L26.8322 96.8418C26.8474 100.872 28.3394 104.757 31.0259 107.762L31.9204 106.962ZM28.0322 96.8361C28.0106 93.0908 29.381 89.4711 31.8775 86.6791L30.983 85.8792C28.2881 88.8929 26.8089 92.8003 26.8322 96.843L28.0322 96.8361ZM31.8775 86.6791C34.374 83.8872 37.8187 82.1223 41.5431 81.7267L41.4164 80.5334C37.3961 80.9604 33.6778 82.8656 30.983 85.8792L31.8775 86.6791ZM20.3447 96.8406C20.3469 95.5855 20.8346 94.3799 21.7056 93.4762L20.8417 92.6434C19.7555 93.7702 19.1474 95.2735 19.1447 96.8385L20.3447 96.8406ZM21.7056 93.4762C22.5767 92.5725 23.7636 92.0409 25.0178 91.9926L24.9717 90.7935C23.4078 90.8537 21.9278 91.5166 20.8417 92.6434L21.7056 93.4762ZM24.4193 91.2231C23.3366 94.8892 23.3366 98.79 24.4193 102.456L25.5702 102.116C24.5529 98.672 24.5529 95.0072 25.5702 91.563L24.4193 91.2231ZM25.0178 101.687C23.7636 101.638 22.5767 101.107 21.7056 100.203L20.8417 101.036C21.9278 102.163 23.4078 102.825 24.9717 102.886L25.0178 101.687ZM21.7056 100.203C20.8346 99.2993 20.3469 98.0937 20.3447 96.8385L19.1447 96.8406C19.1474 98.4056 19.7555 99.909 20.8417 101.036L21.7056 100.203ZM45.3001 78.6695C45.3213 77.3955 45.8422 76.1808 46.7507 75.2873L45.9092 74.4317C44.7763 75.546 44.1267 77.0608 44.1003 78.6496L45.3001 78.6695ZM46.7507 75.2873C47.6591 74.3938 48.8823 73.893 50.1565 73.893V72.693C48.5675 72.693 47.0421 73.3175 45.9092 74.4317L46.7507 75.2873ZM50.1565 73.893C51.4307 73.893 52.6539 74.3938 53.5623 75.2873L54.4038 74.4317C53.2709 73.3175 51.7455 72.693 50.1565 72.693V73.893ZM53.5623 75.2873C54.4708 76.1808 54.9917 77.3955 55.0128 78.6695L56.2127 78.6496C56.1863 77.0608 55.5367 75.546 54.4038 74.4317L53.5623 75.2873ZM55.0127 78.6596V115.02H56.2127V78.6596H55.0127ZM55.0128 115.01C54.9917 116.284 54.4708 117.498 53.5623 118.392L54.4038 119.247C55.5367 118.133 56.1863 116.618 56.2127 115.03L55.0128 115.01ZM53.5623 118.392C52.6539 119.285 51.4307 119.786 50.1565 119.786V120.986C51.7455 120.986 53.2709 120.362 54.4038 119.247L53.5623 118.392ZM50.1565 119.786C48.8823 119.786 47.6591 119.285 46.7507 118.392L45.9092 119.247C47.0421 120.362 48.5675 120.986 50.1565 120.986V119.786ZM46.7507 118.392C45.8422 117.498 45.3213 116.284 45.3001 115.01L44.1003 115.03C44.1267 116.618 44.7763 118.133 45.9092 119.247L46.7507 118.392ZM45.3002 115.02V78.6596H44.1002V115.02H45.3002ZM102.172 26.2762C96.7907 20.9097 89.9408 17.2569 82.4863 15.7784L82.2528 16.9555C89.4749 18.3879 96.1111 21.9268 101.325 27.1259L102.172 26.2762ZM82.4863 15.7784C75.0317 14.2999 67.3062 15.0619 60.2841 17.9683L60.7431 19.0771C67.5461 16.2613 75.0307 15.523 82.2528 16.9555L82.4863 15.7784ZM60.2841 17.9683C53.2621 20.8748 47.2579 25.7955 43.0288 32.1099L44.0259 32.7777C48.123 26.6602 53.94 21.8929 60.7431 19.0771L60.2841 17.9683ZM43.0288 32.1099C38.7998 38.4243 36.5352 45.8497 36.5207 53.4494L37.7207 53.4517C37.7347 46.0889 39.9287 38.8952 44.0259 32.7777L43.0288 32.1099ZM36.5207 53.4506V78.8111H37.7207V53.4506H36.5207ZM36.9285 78.2427C35.155 78.8427 33.4775 79.6955 31.9478 80.7748L32.6396 81.7553C34.075 80.7426 35.649 79.9424 37.313 79.3794L36.9285 78.2427ZM32.8937 81.2651V53.4506H31.6937V81.2651H32.8937ZM32.8937 53.4506C32.8937 42.2832 37.3299 31.5733 45.2264 23.6768L44.3779 22.8283C36.2564 30.9498 31.6937 41.965 31.6937 53.4506H32.8937ZM45.2264 23.6768C53.1229 15.7803 63.8329 11.3441 75.0002 11.3441V10.1441C63.5146 10.1441 52.4995 14.7067 44.3779 22.8283L45.2264 23.6768ZM75.0002 11.3441C86.1676 11.3441 96.8775 15.7803 104.774 23.6768L105.623 22.8283C97.501 14.7067 86.4858 10.1441 75.0002 10.1441V11.3441ZM104.774 23.6768C112.671 31.5733 117.107 42.2832 117.107 53.4506H118.307C118.307 41.965 113.744 30.9498 105.623 22.8283L104.774 23.6768ZM117.107 53.4506V81.2651H118.307V53.4506H117.107ZM118.053 80.7748C116.523 79.6955 114.845 78.8427 113.072 78.2427L112.687 79.3794C114.351 79.9424 115.925 80.7426 117.361 81.7553L118.053 80.7748ZM113.48 78.8111V53.4506H112.28V78.8111H113.48ZM113.48 53.4512C113.485 48.3986 112.489 43.3951 110.547 38.7303L109.44 39.1913C111.32 43.7096 112.285 48.556 112.28 53.4499L113.48 53.4512ZM110.547 38.7303C108.606 34.0655 105.759 29.832 102.171 26.275L101.326 27.1272C104.801 30.5725 107.559 34.673 109.44 39.1913L110.547 38.7303ZM104.7 115.01C104.679 116.284 104.158 117.498 103.25 118.392L104.091 119.247C105.224 118.133 105.874 116.618 105.9 115.03L104.7 115.01ZM103.25 118.392C102.341 119.285 101.118 119.786 99.844 119.786L99.844 120.986C101.433 120.986 102.958 120.362 104.091 119.247L103.25 118.392ZM99.844 119.786C98.5698 119.786 97.3466 119.285 96.4382 118.392L95.5967 119.247C96.7296 120.362 98.255 120.986 99.844 120.986L99.844 119.786ZM96.4382 118.392C95.5297 117.498 95.0088 116.284 94.9876 115.01L93.7878 115.03C93.8142 116.618 94.4638 118.133 95.5967 119.247L96.4382 118.392ZM94.9877 115.02V78.6596H93.7877V115.02H94.9877ZM94.9876 78.6695C95.0088 77.3955 95.5297 76.1808 96.4382 75.2873L95.5967 74.4317C94.4638 75.546 93.8142 77.0608 93.7878 78.6496L94.9876 78.6695ZM96.4382 75.2873C97.3466 74.3938 98.5698 73.893 99.844 73.893V72.693C98.255 72.693 96.7296 73.3175 95.5967 74.4317L96.4382 75.2873ZM99.844 73.893C101.118 73.893 102.341 74.3938 103.25 75.2873L104.091 74.4317C102.958 73.3175 101.433 72.693 99.844 72.693V73.893ZM103.25 75.2873C104.158 76.1808 104.679 77.3955 104.7 78.6695L105.9 78.6496C105.874 77.0608 105.224 75.546 104.091 74.4317L103.25 75.2873ZM104.7 78.6596V115.02H105.9V78.6596H104.7ZM109.127 112.549V81.1301H107.927V112.549H109.127ZM108.463 81.7267C112.188 82.1223 115.632 83.8872 118.129 86.6791L119.023 85.8792C116.329 82.8656 112.61 80.9604 108.59 80.5334L108.463 81.7267ZM118.129 86.6791C120.626 89.4711 121.996 93.0908 121.974 96.8361L123.174 96.843C123.198 92.8003 121.718 88.8929 119.023 85.8792L118.129 86.6791ZM121.974 96.8373C121.96 100.575 120.576 104.178 118.084 106.963L118.978 107.763C121.666 104.759 123.159 100.873 123.174 96.8418L121.974 96.8373ZM118.084 106.963C115.592 109.749 112.165 111.524 108.452 111.953L108.59 113.145C112.594 112.683 116.29 110.768 118.978 107.763L118.084 106.963ZM108.521 113.149H108.527V111.949H108.521V113.149ZM125.583 102.456C126.665 98.79 126.665 94.8892 125.583 91.2231L124.432 91.563C125.449 95.0072 125.449 98.672 124.432 102.116L125.583 102.456ZM124.987 91.9928C126.245 92.0345 127.437 92.5634 128.312 93.4678L129.174 92.6335C128.083 91.5053 126.596 90.8455 125.027 90.7934L124.987 91.9928ZM128.312 93.4678C129.187 94.3722 129.676 95.5813 129.676 96.8396L130.876 96.8396C130.876 95.2699 130.266 93.7617 129.174 92.6335L128.312 93.4678ZM129.676 96.8396C129.676 98.0979 129.187 99.3069 128.312 100.211L129.174 101.046C130.266 99.9175 130.876 98.4092 130.876 96.8396L129.676 96.8396ZM128.312 100.211C127.437 101.116 126.245 101.645 124.987 101.686L125.027 102.886C126.596 102.834 128.083 102.174 129.174 101.046L128.312 100.211Z" fill="black" mask="url(#path-1-outside-1_251_1157)"/>
</svg>
