<svg width="150" height="150" viewBox="0 0 150 150" fill="none" xmlns="http://www.w3.org/2000/svg">
<path d="M35.951 127.66V127.829L36.0964 127.917L36.9507 128.43C36.9983 128.471 37.0641 128.517 37.1355 128.563C37.234 128.627 37.3676 128.707 37.5378 128.801C37.8784 128.99 38.3708 129.236 39.0322 129.52C40.3554 130.089 42.3587 130.809 45.1844 131.517C50.8357 132.933 59.7791 134.3 73.1548 134.3C86.5313 134.3 95.475 132.889 101.126 131.451C103.952 130.732 105.954 130.006 107.276 129.447C107.937 129.167 108.427 128.929 108.764 128.755C108.933 128.668 109.063 128.597 109.157 128.544C109.195 128.523 109.228 128.505 109.254 128.49L109.269 128.482L109.302 128.463C109.31 128.458 109.314 128.457 109.314 128.456L109.314 128.456L109.325 128.451L109.335 128.445L110.213 127.917L110.359 127.829V127.66V71.3568L113.574 73.6589L113.755 73.7885L113.932 73.6526L138.183 54.984L138.344 54.8598L138.289 54.664L137.937 53.4312L137.937 53.4311L137.933 53.4188C135.817 47.0569 131.942 38.7594 128.768 33.4578L128.767 33.457C123.909 25.401 118.724 20.993 113.076 18.586C107.438 16.1834 101.367 15.7881 94.7739 15.7V15.7H94.7699H93.5397H93.3541L93.2713 15.8661L92.7441 16.9228L92.7439 16.9227L92.739 16.9335C90.3491 22.2372 83.8209 25.3866 75.2636 25.3866C66.7063 25.3866 60.1781 22.2372 57.7882 16.9335L57.7884 16.9334L57.7831 16.9228L57.2559 15.8661L57.173 15.7H56.9874L55.7573 15.7L55.7534 15.7C49.0729 15.7881 42.9579 16.1833 37.3196 18.586C31.671 20.993 26.5307 25.4008 21.7608 33.4554C18.4106 38.7577 14.1845 47.4052 12.0685 53.4138L12.0655 53.4224L12.063 53.4312L11.7115 54.664L11.6582 54.8511L11.8072 54.9761L34.4766 73.997L34.6988 74.1834L34.8927 73.9676L35.951 72.789V127.66ZM39.8928 125.275L39.89 125.273V62.8478V62.089L39.3711 62.6426L34.1164 68.2486L16.225 53.4212C18.5087 47.6566 22.1408 40.3886 25.085 35.5286L25.0858 35.5272C29.2802 28.5213 33.5872 24.6966 38.3503 22.5702C43.0778 20.4597 48.285 20.007 54.357 19.8275C57.981 26.0199 65.6133 29.509 75.0879 29.509C84.5637 29.509 92.1968 26.019 95.8202 19.8249C101.977 19.9188 107.184 20.3717 111.89 22.5035C116.63 24.6512 120.894 28.5194 125.09 35.5272L125.092 35.5301C127.857 40.0345 131.314 47.4646 133.426 53.2341L113.738 68.4649L106.713 63.6569L106.244 63.3356V63.9045V125.354C103.42 126.631 93.7676 130.001 73.1548 130.001C52.0983 130.001 42.479 126.484 39.8928 125.275Z" fill="black" stroke="black" stroke-width="0.6"/>
</svg>
