<svg width="150" height="150" viewBox="0 0 150 150" fill="none" xmlns="http://www.w3.org/2000/svg">
<path d="M130.414 59.5299C130.121 59.5299 129.832 59.5438 129.547 59.5677C129.444 55.3591 128.76 49.584 127.534 44.2306C126.905 41.4838 126.131 38.8415 125.216 36.5752C124.303 34.3138 123.241 32.4042 122.024 31.1427C118.61 27.6018 114.256 25.5535 110.07 25.5535H39.9329C35.7454 25.5535 31.3915 27.6018 27.9768 31.1427C26.7602 32.4042 25.6979 34.3137 24.7849 36.5752C23.87 38.8415 23.0961 41.4839 22.4667 44.2308C21.24 49.5844 20.5565 55.3601 20.4537 59.5696C20.1639 59.5449 19.8691 59.5299 19.5693 59.5299C13.576 59.5299 8.70293 64.4132 8.70293 70.4146V93.6533C8.70293 99.646 13.5765 104.52 19.5693 104.52H20.4102V114.315C20.4102 115.494 21.3651 116.447 22.5414 116.447C23.7178 116.447 24.6727 115.494 24.6727 114.315V104.52H125.332V114.315C125.332 115.494 126.285 116.447 127.463 116.447C128.642 116.447 129.595 115.494 129.595 114.315V104.52H130.415C136.419 104.52 141.3 99.6465 141.3 93.6533V70.4146C141.298 64.4127 136.416 59.5299 130.414 59.5299ZM31.042 34.1028C33.6831 31.3644 36.9277 29.816 39.9311 29.816H110.068C113.068 29.816 116.313 31.3626 118.956 34.1011C119.976 35.1589 120.895 36.8627 121.697 38.9772C122.497 41.0855 123.17 43.5758 123.71 46.1831C124.774 51.3204 125.316 56.8838 125.3 60.822C121.883 62.6571 119.547 66.264 119.547 70.4146V76.6592C119.547 77.5044 118.861 78.1905 118.016 78.1905H31.9834C31.1399 78.1905 30.4521 77.5042 30.4521 76.6592V70.4146C30.4521 66.2673 28.1163 62.6642 24.699 60.8276C24.682 56.8894 25.2235 51.325 26.2876 46.1867C26.8276 43.579 27.5007 41.0883 28.3004 38.9795C29.1024 36.8646 30.022 35.1606 31.042 34.1028ZM137.036 93.6551C137.036 97.2941 134.065 100.259 130.414 100.259H19.5675C15.926 100.259 12.9636 97.2966 12.9636 93.6551V70.4164C12.9636 66.765 15.9267 63.7943 19.5675 63.7943C23.2181 63.7943 26.1896 66.7658 26.1896 70.4164V76.661C26.1896 79.8556 28.7888 82.4548 31.9834 82.4548H118.016C121.211 82.4548 123.81 79.8556 123.81 76.661V70.4164C123.81 66.765 126.773 63.7943 130.414 63.7943C134.064 63.7943 137.036 66.7658 137.036 70.4164V93.6551Z" fill="black" stroke="black" stroke-width="0.6"/>
</svg>
